<?xml version="1.0" encoding="UTF-8"?>
<svg id="Layer_1" data-name="Layer 1" xmlns="http://www.w3.org/2000/svg" version="1.1" viewBox="0 0 72 108">
  <defs>
    <style>
      .cls-1 {
        fill: #c1272d;
      }

      .cls-1, .cls-2 {
        stroke-width: 0px;
      }

      .cls-3 {
        fill: none;
        stroke: #fff;
        stroke-miterlimit: 10;
        stroke-width: 4px;
      }

      .cls-2 {
        fill: #fff;
      }
    </style>
  </defs>
  <rect class="cls-1" y="0" width="72" height="108"/>
  <rect class="cls-2" y="9" width="72" height="9"/>
  <rect class="cls-2" y="90" width="72" height="9"/>
  <path class="cls-3" d="M38.7,56.7c0,13.42,10.88,24.3,24.3,24.3,0-13.42-10.88-24.3-24.3-24.3Z"/>
  <path class="cls-3" d="M63,27c-13.42,0-24.3,10.88-24.3,24.3,13.42,0,24.3-10.88,24.3-24.3Z"/>
  <path class="cls-3" d="M33.3,51.3c0-13.42-10.88-24.3-24.3-24.3,0,13.42,10.88,24.3,24.3,24.3Z"/>
  <path class="cls-3" d="M9,81c13.42,0,24.3-10.88,24.3-24.3-13.42,0-24.3,10.88-24.3,24.3Z"/>
  <circle class="cls-2" cx="72" cy="54" r="9"/>
  <circle class="cls-2" cy="54" r="9"/>
</svg>