<?xml version="1.0" encoding="UTF-8"?>
<svg id="Layer_1" data-name="Layer 1" xmlns="http://www.w3.org/2000/svg" version="1.1" xmlns:xlink="http://www.w3.org/1999/xlink" viewBox="0 0 504.26 504">
  <defs>
    <style>
      .cls-1 {
        fill: none;
        stroke: url(#linear-gradient);
        stroke-linecap: round;
        stroke-miterlimit: 10;
        stroke-width: 48px;
      }

      .cls-2 {
        fill: url(#linear-gradient-2);
      }

      .cls-2, .cls-3 {
        stroke-width: 0px;
      }

      .cls-3 {
        fill: url(#linear-gradient-3);
      }
    </style>
    <linearGradient id="linear-gradient" x1="28.23" y1="493.91" x2="494.17" y2="27.97" gradientUnits="userSpaceOnUse">
      <stop offset="0" stop-color="#22a3dd"/>
      <stop offset="1" stop-color="#71bf44"/>
    </linearGradient>
    <linearGradient id="linear-gradient-2" x1="262.75" y1="294.44" x2="275.25" y2="335.32" gradientUnits="userSpaceOnUse">
      <stop offset=".25" stop-color="#231f20" stop-opacity="0"/>
      <stop offset="1" stop-color="#231f20" stop-opacity=".75"/>
    </linearGradient>
    <linearGradient id="linear-gradient-3" x1="267.26" y1="417.02" x2="279.12" y2="369.45" gradientUnits="userSpaceOnUse">
      <stop offset=".25" stop-color="#231f20" stop-opacity="0"/>
      <stop offset=".82" stop-color="#231f20" stop-opacity=".75"/>
    </linearGradient>
  </defs>
  <path class="cls-1" d="M468.26,36s-261,63-261,117.05,200.25,71.7,189,134.95c-9,50.62-165.59,95.96-207,67.23-45-31.23,27-121.23,72-53.2,61.98,93.69-9,165.98-225,165.98"/>
  <path class="cls-2" d="M253.63,338.39c21.72-2.91,47.11-10.86,47.11-10.86-6.74-20.35-19.46-38.75-19.46-38.75l-40.03,26.48s8.54,12.97,12.38,23.12Z"/>
  <path class="cls-3" d="M251.49,386.98s33.67-4.58,54.37-10.86c-4.37,28.88-20.32,45.46-20.32,45.46l-42.03-25.07s3.63-3.25,7.97-9.53Z"/>
</svg>