<?xml version="1.0" encoding="UTF-8"?>
<svg id="Layer_1" data-name="Layer 1" xmlns="http://www.w3.org/2000/svg" version="1.1" viewBox="0 0 432 432">
  <defs>
    <style>
      .cls-1 {
        stroke-width: 0px;
      }

      .cls-1, .cls-2 {
        fill: #d4145a;
      }

      .cls-2 {
        stroke: #fff;
        stroke-miterlimit: 10;
        stroke-width: 8px;
      }
    </style>
  </defs>
  <g>
    <path class="cls-2" d="M216,180s-27-90-27-126S199.78,0,216,0s27,18,27,54-27,126-27,126Z"/>
    <path class="cls-2" d="M207.22,180s-61.54-58-77.74-86.06c-16.2-28.06-15.9-46.94-3.26-54.24,12.65-7.3,29.14,1.88,45.34,29.94s35.66,110.36,35.66,110.36h0Z"/>
    <path class="cls-2" d="M225,180s61.54-58,77.74-86.06c16.2-28.06,15.9-46.94,3.26-54.24-12.65-7.3-29.14,1.88-45.34,29.94s-35.66,110.36-35.66,110.36Z"/>
  </g>
  <g>
    <path class="cls-2" d="M180,216s-90,27-126,27S0,232.22,0,216s18-27,54-27,126,27,126,27Z"/>
    <path class="cls-2" d="M180,224.78s-58,61.54-86.06,77.74c-28.06,16.2-46.94,15.9-54.24,3.26-7.3-12.65,1.88-29.14,29.94-45.34,28.06-16.2,110.36-35.66,110.36-35.66Z"/>
    <path class="cls-2" d="M180,207s-58-61.54-86.06-77.74-46.94-15.9-54.24-3.26c-7.3,12.65,1.88,29.14,29.94,45.34s110.36,35.66,110.36,35.66h0Z"/>
  </g>
  <g>
    <path class="cls-2" d="M216,252s27,90,27,126-10.78,54-27,54-27-18-27-54,27-126,27-126Z"/>
    <path class="cls-2" d="M224.78,252s61.54,58,77.74,86.06c16.2,28.06,15.9,46.94,3.26,54.24-12.65,7.3-29.14-1.88-45.34-29.94-16.2-28.06-35.66-110.36-35.66-110.36h0Z"/>
    <path class="cls-2" d="M207,252s-61.54,58-77.74,86.06c-16.2,28.06-15.9,46.94-3.26,54.24,12.65,7.3,29.14-1.88,45.34-29.94s35.66-110.36,35.66-110.36h0Z"/>
  </g>
  <g>
    <path class="cls-2" d="M252,216s90-27,126-27,54,10.78,54,27-18,27-54,27-126-27-126-27Z"/>
    <path class="cls-2" d="M252,207.22s58-61.54,86.06-77.74c28.06-16.2,46.94-15.9,54.24-3.26,7.3,12.65-1.88,29.14-29.94,45.34s-110.36,35.66-110.36,35.66h0Z"/>
    <path class="cls-2" d="M252,225s58,61.54,86.06,77.74c28.06,16.2,46.94,15.9,54.24,3.26,7.3-12.65-1.88-29.14-29.94-45.34-28.06-16.2-110.36-35.66-110.36-35.66h0Z"/>
  </g>
  <circle class="cls-1" cx="216" cy="216" r="27"/>
</svg>